<?xml version="1.0" encoding="UTF-8" standalone="no"?>
<svg
   xmlns:dc="http://purl.org/dc/elements/1.1/"
   xmlns:cc="http://creativecommons.org/ns#"
   xmlns:rdf="http://www.w3.org/1999/02/22-rdf-syntax-ns#"
   xmlns:svg="http://www.w3.org/2000/svg"
   xmlns="http://www.w3.org/2000/svg"
   xmlns:xlink="http://www.w3.org/1999/xlink"
   xmlns:sodipodi="http://sodipodi.sourceforge.net/DTD/sodipodi-0.dtd"
   xmlns:inkscape="http://www.inkscape.org/namespaces/inkscape"
   width="128"
   viewBox="0 0 36.124445 36.124445"
   height="128"
   id="svg2"
   version="1.1"
   inkscape:version="0.48.4 r9939"
   sodipodi:docname="remarkable.svg">
  <metadata
     id="metadata28">
    <rdf:RDF>
      <cc:Work
         rdf:about="">
        <dc:format>image/svg+xml</dc:format>
        <dc:type
           rdf:resource="http://purl.org/dc/dcmitype/StillImage" />
        <dc:title />
      </cc:Work>
    </rdf:RDF>
  </metadata>
  <sodipodi:namedview
     pagecolor="#ffffff"
     bordercolor="#666666"
     borderopacity="1"
     objecttolerance="10"
     gridtolerance="10"
     guidetolerance="10"
     inkscape:pageopacity="0"
     inkscape:pageshadow="2"
     inkscape:window-width="1301"
     inkscape:window-height="744"
     id="namedview26"
     showgrid="false"
     inkscape:snap-global="false"
     inkscape:zoom="4"
     inkscape:cx="69.306127"
     inkscape:cy="59.022418"
     inkscape:window-x="65"
     inkscape:window-y="24"
     inkscape:window-maximized="1"
     inkscape:current-layer="svg2">
    <inkscape:grid
       type="xygrid"
       id="grid3777"
       empspacing="5"
       visible="true"
       enabled="true"
       snapvisiblegridlinesonly="true" />
  </sodipodi:namedview>
  <defs
     id="defs4">
    <linearGradient
       id="linearGradient4460">
      <stop
         offset="0"
         style="stop-color:#53504d"
         id="stop7" />
      <stop
         offset="1"
         style="stop-color:#726e6a"
         id="stop9" />
    </linearGradient>
    <linearGradient
       id="linearGradient4038">
      <stop
         offset="0"
         style="stop-color:#ff8900"
         id="stop12" />
      <stop
         offset="1"
         style="stop-color:#ffa53d"
         id="stop14" />
    </linearGradient>
    <linearGradient
       gradientTransform="matrix(0.058,0,0,0.05257,-1.57492,-1.41742)"
       xlink:href="#linearGradient4038"
       id="linearGradient4950"
       y1="212"
       y2="100"
       gradientUnits="userSpaceOnUse"
       x2="0" />
    <linearGradient
       gradientTransform="matrix(1.10525,0,0,1.10525,-134.27874,-295.76183)"
       xlink:href="#linearGradient4460"
       id="linearGradient4431"
       y1="279.09601"
       y2="268.32999"
       gradientUnits="userSpaceOnUse"
       x2="0" />
  </defs>
  <g
     style="fill:#4cc1ff;fill-opacity:1;fill-rule:evenodd"
     id="g18"
     transform="matrix(2.7826563,0,0,2.7826563,-0.78470909,-0.78470915)">
    <rect
       width="12.982"
       x="0.28200001"
       y="0.28200001"
       rx="6.4910002"
       height="12.982"
       style="opacity:0.5;fill:#4cc1ff;fill-opacity:1"
       id="rect20" />
    <rect
       width="11.853"
       x="0.847"
       y="0.847"
       rx="5.9260001"
       height="11.853"
       style="fill:#4cc1ff;fill-opacity:1"
       id="rect22" />
  </g>
  <g
     style="font-size:31.41309929px;font-style:normal;font-weight:normal;line-height:125%;letter-spacing:0px;word-spacing:0px;fill:#ffffff;fill-opacity:1;stroke:none;font-family:Sans"
     id="text3773">
    <path
       d="m 29.683542,12.012141 c -2.4e-5,0.782275 -0.552207,1.94646 -1.65655,3.49256 -0.220896,0.312915 -0.952538,0.768466 -2.194929,1.366654 -0.294518,0.358929 -0.869708,0.800675 -1.725573,1.32524 -0.635029,0.193273 -1.541529,0.501575 -2.719503,0.924907 -0.395747,0.230084 -0.975539,0.529183 -1.739378,0.897298 -0.119653,0.02762 -1.053763,0.179467 -2.80233,0.455551 -1.398875,0.22088 -2.098306,0.506175 -2.098297,0.855884 -9e-6,0.322113 0.60279,0.911108 1.808401,1.766987 0.984715,0.699436 1.656537,1.127378 2.015469,1.283826 0.984713,0.432547 2.622855,1.173392 4.914432,2.222538 l 2.374388,0.786862 c 1.05833,0.478558 1.60131,1.049147 1.628941,1.711768 -0.165677,0.303699 -0.414159,0.455549 -0.745448,0.455551 -0.0092,-2e-6 -0.193285,-0.03681 -0.552183,-0.110436 -0.358939,-0.06442 -0.575211,-0.09663 -0.648815,-0.09663 -1.270041,-1e-6 -2.438828,-0.243882 -3.506365,-0.731643 -0.06444,-0.0092 -1.108983,-0.487762 -3.13364,-1.435676 -0.414151,-0.257685 -1.035356,-0.658018 -1.863619,-1.200999 -0.681037,-0.441745 -1.1734,-0.860483 -1.47709,-1.256217 -0.11965,-0.0092 -0.285305,-0.04141 -0.496965,-0.09663 -0.303711,-0.469353 -1.150391,-1.127371 -2.540044,-1.974056 -1.168794,-0.727036 -1.753187,-1.302226 -1.753182,-1.725573 0.05521,-0.138039 0.230071,-0.575184 0.524574,-1.311435 1.831401,-0.395723 4.159771,-0.938703 6.98512,-1.628941 0.285281,-0.05521 0.984713,-0.216262 2.098296,-0.48316 0.717823,-0.174848 1.969437,-0.865077 3.754847,-2.070688 2.236322,-1.518491 3.354492,-2.779308 3.354514,-3.782456 -2.2e-5,-0.89268 -0.391151,-1.7071493 -1.17339,-2.4434113 C 25.532944,8.4643822 24.575827,8.0042298 23.44387,7.8293523 22.919278,7.6177019 22.601773,7.5118668 22.491354,7.5118468 c -0.184078,2e-5 -0.524591,-0.00458 -1.02154,-0.013804 -0.607417,-0.00918 -1.09978,-0.013785 -1.47709,-0.013805 l -1.684159,-0.013805 c -0.128856,2e-5 -0.193277,0.013825 -0.193264,0.041414 -1.3e-5,0.092051 -0.01382,0.1518703 -0.04141,0.1794596 -0.257698,-0.00918 -0.492376,-0.013785 -0.704034,-0.013804 -0.635022,1.98e-5 -1.053761,0.027629 -1.256217,0.082827 -0.45096,0.1380654 -1.196407,0.4233598 -2.236343,0.8558842 -0.524582,0.1380645 -1.177998,0.3221255 -1.960251,0.5521833 -0.681031,0.3037189 -1.067559,0.6028179 -1.159585,0.8972981 -0.542985,1.767002 -0.9111065,3.860695 -1.1043663,6.281085 0.036808,0.496976 0.055214,1.256227 0.055218,2.277757 -4.2e-6,0.165664 -4.2e-6,0.340521 0,0.524574 -0.064426,0.147257 -0.1610575,0.381935 -0.2898962,0.704034 -0.1932679,0.874297 -0.2898999,1.642751 -0.2898963,2.305365 -3.6e-6,0.174863 0.0046,0.340518 0.013805,0.496965 l 0.082828,0.869689 c 0.027605,0.34972 0.04141,0.855887 0.041414,1.518504 -3.8e-6,1.435678 -0.2714937,2.153516 -0.8144705,2.153515 -2.9e-6,1e-6 -0.1978684,-0.06902 -0.5935971,-0.207068 C 7.4719645,26.842866 7.2464898,26.769242 7.1820702,26.769241 6.9888045,25.747704 6.8921725,24.04514 6.8921739,21.661545 c -1.4e-6,-0.09202 0.078224,-0.846674 0.234678,-2.263951 0.2024654,-1.932632 0.3911278,-3.474143 0.5659879,-4.624536 0.1932618,-0.625795 0.3911273,-1.371241 0.5935971,-2.236343 l 0,-0.66262 c -0.1380485,-0.13803 -0.2254774,-0.211654 -0.2622871,-0.220873 -2.5e-6,1.6e-5 -0.1426497,0.06904 -0.4279421,0.207069 C 7.3201142,11.989149 7.1498579,12.05357 7.0854381,12.053555 6.9105786,12.05357 6.7495253,11.887916 6.6022777,11.55659 6.5010431,11.344936 6.4504263,11.165476 6.4504273,11.018211 6.4504263,10.033502 6.7219162,9.2328365 7.2648977,8.6162136 7.6422209,8.1928923 8.4750966,7.539476 9.7635274,6.6559627 9.9015688,6.563953 11.097965,6.2970647 13.352719,5.8552968 c 2.309957,-0.4325216 3.883678,-0.6487932 4.721168,-0.6488154 1.840597,2.22e-5 3.598378,0.08285 5.273351,0.2484825 0.119622,0.1012555 0.322089,0.193286 0.607402,0.2760916 0.874271,0.00922 1.905012,0.4923848 3.092226,1.4494813 1.187172,0.9571372 1.8774,1.8544342 2.070688,2.6918939 -2.4e-5,0.018424 0.0644,0.1610713 0.193264,0.4279423 0.128819,0.266905 0.19324,0.414154 0.193264,0.441746 -2.4e-5,0.03683 0.03219,0.243898 0.09663,0.621207 0.05519,0.395747 0.0828,0.612018 0.08283,0.648815"
       style="font-size:28.27178764px;font-variant:normal;font-weight:bold;font-stretch:normal;fill:#ffffff;font-family:Daniel;-inkscape-font-specification:Daniel Bold"
       id="path2996" />
  </g>
</svg>
